<svg xmlns="http://www.w3.org/2000/svg" id="31-nights-of-horror-2018-logo" viewBox="0 0 539.4 87">
  <style>
    .st0{fill:#8c0f0f}.st1{fill:#fff}.st2{fill:#666565}
  </style>
  <path d="M33.7 24.7h-17c-1.1 0-2 0-2.6.1-.7.1-1.1.2-1.4.3-.7.2-1.1.9-1.1 2.2v1c0 .4.1.9.1 1.4.1.5.1 1 .1 1.4v1.2c0 3.8-1.5 5.8-4.5 5.8-2.9 0-4.4-1.6-4.4-4.9v-1.4c0-.6 0-1.2.1-1.8.1-.6.1-1.2.1-1.8v-1.3-2.2c0-.6 0-1.1-.1-1.6v-1.3-1.3c0-1.1.1-1.9.2-2.5.1-.6.4-1.1.9-1.4.5-.3 1.1-.5 2-.6.9-.1 2.1-.1 3.6-.1h22.7c.6 0 1.2 0 2-.1H36.8c.7-.1 1.4-.1 2.3-.1h2.6c4.4 0 6.6 1.4 6.6 4.3 0 1.6-.9 3.2-2.6 4.9L32 37.9c5.1.2 9.2 1.9 12.3 5 3.4 3.4 5.1 7.7 5.1 12.9 0 6.4-2.4 11.7-7.3 15.9v-.1c-2.3 2.1-4.9 3.6-8 4.6-3 1-6.4 1.5-10.1 1.5-6.8 0-12.5-1.7-17-5-4.6-3.4-7-7.6-7-12.7 0-1.5.2-2.9.7-4.3.5-1.3 1.2-2.5 2-3.5.9-1 1.9-1.7 3.1-2.3 1.2-.6 2.4-.9 3.8-.9 1.9 0 3.5.6 4.7 1.7 1.2 1.1 1.8 2.6 1.8 4.4 0 3.5-2 5.3-6.1 5.5.2 2.1 1.6 4 4 5.7 1.4 1 3 1.7 4.8 2.2s3.7.8 5.6.8c2.1 0 4.1-.3 5.9-.9 1.9-.6 3.5-1.5 4.9-2.7 1.3-1.3 2.2-2.7 3-4.4.7-1.6 1.1-3.4 1.1-5.4 0-6.7-3.8-10-11.3-10-1.9 0-4.2.2-6.8.7-.3.1-.6.1-.8.1h-.9c-2.3 0-3.5-1.1-3.5-3.4 0-1 .6-2.1 1.8-3.2l15.9-15.4zM71.8 29.6c-.1-2.1-.3-3.6-.6-4.6-.4-1-1-1.5-1.9-1.5-.1.1-.5.1-1 .1-.6 0-1.1.1-1.5.1-.5.1-1 .1-1.4.1h-1.2c-3.2 0-4.9-1.4-4.9-4.2 0-2.8 1.6-4.2 4.7-4.2h1.4c.6 0 1.3.1 1.9.2h.8c.5.1.9.1 1.4.1H73c.7 0 1.4-.1 2-.1 1.9-.2 3-.3 3.5-.3 1 0 1.7.2 2.3.5.6.4 1 .8 1.4 1.4.3.9.4 1.9.4 3.1v.8c0 .4 0 .9-.1 1.4l-.3 8.7c-.1 2.9-.1 5.5-.1 8V52c0 1.1 0 2.5.1 4.1v3.6c.1.7.1 1.4.1 2.1v1.5c.1 3.2 1 4.8 2.5 4.8H86c.5 0 1-.1 1.6-.1.5-.1 1.1-.1 1.6-.2s1-.1 1.3-.1c3.8 0 5.7 1.4 5.7 4.2s-1.8 4.2-5.3 4.2h-1.5c-.5 0-1-.1-1.4-.1-2.4-.3-4.5-.5-6.3-.7-1.8-.2-3.3-.3-4.5-.3-2.5 0-5.5.3-9.2.8-1 .1-1.9.2-2.7.3-.8.1-1.4.1-1.9.1-3.5 0-5.2-1.4-5.2-4.3 0-2.8 1.9-4.2 5.8-4.2h1.5c.5 0 1 .1 1.4.2h2.3c1.1 0 1.9-.5 2.3-1.5.2-.8.3-2.2.4-4.1.1-2 .2-4.6.2-7.8l-.3-24.9zM353.7 56.3c-1 .5-1.8 1.2-2.7 1.8-.8.7-1.5 1.5-2.1 2.3 1.9-.9 4-1.4 6.4-1.4 3.9 0 7.8 1.6 11.7 4.8 3.8 3.1 6.7 4.6 8.6 4.6 1.1 0 2.1-.4 2.7-1.1s1.1-1.8 1.2-3c-.5.2-1.2.4-2 .4-3.5 0-5.2-1.6-5.2-4.9 0-1.7.6-3.1 1.9-4.1 1.3-1.1 2.9-1.6 4.9-1.6 2.6 0 4.6.9 6.2 2.6 1.6 1.7 2.3 4.1 2.3 7.1 0 3.9-1.2 7.2-3.7 9.9-2.5 2.8-5.6 4.2-9.4 4.2-3.4 0-7.4-1.7-11.9-5.1-4-3.1-7.5-4.7-10.4-4.7-1.6 0-2.8.4-3.7 1.2 1.8.4 2.7 1.5 2.7 3.5 0 3.4-1.9 5.1-5.8 5.1-2.3 0-4.2-.9-5.7-2.7-1.5-1.8-2.2-4.3-2.2-7.5 0-10.7 7.3-18.4 21.9-22.9l6.2-2.1c2.9-1 5.2-2.4 6.9-4.1 1.7-1.7 2.5-3.7 2.5-6 0-3.2-1.1-5.8-3.4-7.6-2.2-1.8-5.3-2.7-9.2-2.7-3.2 0-5.9.6-8.1 1.7-2.2 1.1-3.6 2.7-4.3 4.8 2.9.6 4.4 2.3 4.4 5.1 0 1.9-.7 3.4-2 4.7-1.4 1.3-3 1.9-5.1 1.9-2.4 0-4.3-.8-5.8-2.4-1.5-1.6-2.2-3.7-2.2-6.3 0-5 2.3-9.2 7-12.8 4.4-3.3 10-4.9 16.7-4.9 6.4 0 11.7 1.7 15.9 5 4.3 3.5 6.4 8 6.4 13.3 0 3.8-1 7.1-3.1 9.9-2 2.8-4.9 4.9-8.5 6.4h.1c-.5.2-1.6.6-3.4 1.2l-7.2 2.4h.1c-2 .7-3.8 1.4-5.5 2.1-1.5.6-2.9 1.3-4.1 1.9zM419.7 77.8c-7.9 0-14.1-2.8-18.5-8.5-4.3-5.6-6.5-13.3-6.5-23 0-10 2.3-17.8 6.8-23.5 4.6-5.9 10.9-8.8 19-8.8 7.7 0 13.8 2.8 18.2 8.5 2.3 2.8 4 6 5 9.7 1.1 3.7 1.6 7.9 1.6 12.6 0 10.2-2.3 18.2-6.8 24.1-4.5 5.9-10.7 8.9-18.8 8.9zm.6-55c-9.6 0-14.6 7.5-15 22.5v1.4c0 7.2 1.3 12.7 3.8 16.6 2.5 3.9 6.1 5.8 10.7 5.8 2.3 0 4.4-.6 6.3-1.7s3.4-2.7 4.8-4.8c1.3-2.1 2.3-4.6 3-7.6.7-3 1-6.3 1-10.1 0-7.2-1.3-12.7-3.8-16.5-2.5-3.7-6.1-5.6-10.8-5.6zM464.4 29.6c-.1-2.1-.3-3.6-.6-4.6-.4-1-1-1.5-1.9-1.5-.1.1-.5.1-1 .1-.6 0-1.1.1-1.5.1-.5.1-1 .1-1.4.1h-1.2c-3.2 0-4.9-1.4-4.9-4.2 0-2.8 1.6-4.2 4.7-4.2h1.4c.6 0 1.3.1 1.9.2h.9c.5.1.9.1 1.4.1h3.5c.7 0 1.4-.1 2-.1h-.1c1.9-.2 3-.3 3.5-.3 1 0 1.7.2 2.3.5s1 .8 1.4 1.4c.3.9.5 1.9.5 3.1v.8c0 .4 0 .9-.1 1.4l-.3 8.7c-.1 2.9-.1 5.5-.1 8V52c0 1.1 0 2.5.1 4.1v3.6c.1.7.1 1.4.1 2.1v1.5c.1 3.2 1 4.8 2.5 4.8h1.2c.5 0 1-.1 1.6-.1.5-.1 1.1-.1 1.6-.2s1-.1 1.3-.1c3.8 0 5.7 1.4 5.7 4.2s-1.8 4.2-5.3 4.2h-1.5c-.5 0-1-.1-1.4-.1-2.4-.3-4.5-.5-6.3-.7s-3.3-.3-4.5-.3c-2.5 0-5.5.3-9.2.8-1 .1-1.9.2-2.7.3-.8.1-1.4.1-1.9.1-3.5 0-5.2-1.4-5.2-4.3 0-2.8 1.9-4.2 5.8-4.2h1.5c.5 0 1 .1 1.4.2h2.3c1.1 0 1.9-.5 2.3-1.5.2-.8.3-2.2.5-4.1.1-2 .2-4.6.2-7.8l-.5-24.9zM496.9 44.1c.5-.5 1.2-.9 1.8-1.3.7-.4 1.5-.7 2.3-1.1-1.1-.8-2.1-1.5-3-2.2-.8-.7-1.5-1.4-2-2-1.3-2-2-4.3-2-7.1 0-2.3.5-4.5 1.6-6.5 1-2 2.5-3.8 4.5-5.4 4.1-3.2 9-4.8 14.8-4.8 5.7 0 10.6 1.6 14.6 4.8 1.9 1.6 3.4 3.4 4.5 5.4 1.1 2 1.6 4.2 1.6 6.5 0 2.5-.5 4.6-1.5 6.3-1 1.7-2.8 3.4-5.4 5 1.5.7 2.8 1.4 4 2.3 4.4 3.2 6.7 7.7 6.7 13.6 0 5.9-2.3 10.7-6.8 14.5-4.4 3.6-10.3 5.4-17.5 5.4-7.4 0-13.3-1.8-17.9-5.3-4.6-3.7-6.9-8.6-6.9-14.6 0-5.6 2.2-10.2 6.6-13.5zm18.3 2.3c-4.5 0-8 1-10.5 3s-3.8 4.7-3.8 8.1 1.3 6.2 3.8 8.3c2.6 2.1 6 3.1 10.2 3.1 4.2 0 7.6-1 10.1-3.1 2.6-2.1 3.8-4.9 3.8-8.3s-1.2-6.1-3.7-8.1-5.8-3-9.9-3zm-.3-24.1c-3.1 0-5.6.8-7.5 2.2-2 1.5-2.9 3.5-2.9 5.9 0 2.1 1 3.8 2.9 5.1 1.9 1.3 4.4 1.9 7.6 1.9 3.1 0 5.5-.7 7.4-2 1.9-1.3 2.8-3 2.8-5.1 0-2.4-1-4.3-2.9-5.8s-4.4-2.2-7.4-2.2z" class="st0"/>
  <g>
    <path d="M118.2 33.6h-3.9V1h3.8l11.5 21.7 1.2 3.2h.1l-.1-3.2V1h3.9v32.6h-3.9l-11.2-21.3-1.6-3.4.1 3.4v21.3zM141.1 33.6v-3.3h7.2v-26h-7.2V1h18.6v3.3h-7.2v26h7.2v3.3h-18.6zM186.1 33.6c-2.3.7-4.4 1-6.3 1-2.7 0-5.1-.7-7.3-2-2.1-1.3-3.8-3.4-5-6.1-1.2-2.7-1.8-5.8-1.8-9.2 0-3.4.6-6.4 1.8-9.1 1.2-2.7 2.8-4.7 5-6.1C174.6.7 177 0 179.6 0c1.9 0 4.1.5 6.6 1.4v3.9c-2.3-1.3-4.5-2-6.7-2-1.7 0-3.2.6-4.6 1.7-1.4 1.2-2.5 2.8-3.4 5.1-.8 2.2-1.3 4.6-1.3 7.3 0 3.5.8 6.8 2.4 9.6 1.6 2.9 4.1 4.3 7.6 4.3.5 0 1 0 1.7-.1V20.7h-3.2v-3.3h7.5v16.2zM191.7 33.6V1h4.2v14H208V1h4.2v32.6H208V18.3h-12.1v15.3h-4.2zM225.6 33.6v-29h-9.8V1h23.8v3.6h-9.8v29h-4.2zM244 32.9v-4c3.4 1.6 6.4 2.4 9.2 2.4 1.1 0 2.2-.2 3.3-.7 1.1-.4 1.8-1.1 2.4-1.9.5-.8.8-1.7.8-2.7 0-1.1-.4-2.2-1.1-3.2s-2.1-2.1-4.2-3.3l-2.1-1.2-2.2-1.2c-3.8-2.3-5.7-5.1-5.7-8.4 0-2.5.9-4.5 2.6-6.2 1.7-1.7 4.4-2.5 8-2.5 2.3 0 4.6.3 6.7 1v3.6c-2.4-.9-4.7-1.4-7-1.4-1.8 0-3.3.5-4.4 1.4-1.1 1-1.7 2.1-1.7 3.4 0 1.3.4 2.4 1.3 3.3.9.9 2 1.7 3.3 2.4l1.6 1 2 1.2 1.7 1c3.6 2.2 5.3 4.9 5.3 8.2 0 2.5-.9 4.7-2.8 6.5-1.8 1.8-4.8 2.7-8.8 2.7-1.3 0-2.5-.1-3.7-.3-1.1 0-2.6-.4-4.5-1.1zM115.4 85.6V40.1h5.9v19.6h16.8V40.1h5.9v45.5h-5.9V64.2h-16.8v21.4h-5.9zM165.7 87c-5.2 0-9.1-2.2-11.8-6.5-2.7-4.3-4.1-10.2-4.1-17.6 0-7.4 1.4-13.2 4.1-17.6 2.7-4.4 6.7-6.5 11.8-6.5 5.2 0 9.1 2.2 11.8 6.5s4.1 10.2 4.1 17.6c0 7.4-1.4 13.3-4.1 17.6-2.7 4.3-6.7 6.5-11.8 6.5zm0-4.6c2.8 0 5.2-1.6 7.1-4.8 1.9-3.2 2.9-8.1 2.9-14.7s-1-11.4-2.9-14.7c-1.9-3.2-4.3-4.9-7.1-4.9-2.9 0-5.2 1.6-7.1 4.9s-2.9 8.1-2.9 14.7 1 11.5 2.9 14.7 4.2 4.8 7.1 4.8zM194 66.3v19.3h-6V40.1h12.1c4 0 6.9.4 8.8 1.2 1.9.8 3.3 2 4.4 3.7 1 1.6 1.5 3.4 1.5 5.3 0 1.8-.3 3.5-1 5.3-.7 1.8-1.6 3.4-2.8 4.8-1.2 1.4-2.9 2.7-5.2 4L219 85.6h-7.1l-12-19.3H194zm0-4.6h8.3c1.9-1 3.3-2 4.2-3.1.9-1.1 1.6-2.2 2.1-3.4s.7-2.4.7-3.6c0-2.1-.8-3.8-2.3-5.1-1.6-1.3-4.4-1.9-8.4-1.9H194v17.1zM230 66.3v19.3h-6V40.1h12.1c4 0 6.9.4 8.8 1.2 1.9.8 3.3 2 4.4 3.7 1 1.6 1.5 3.4 1.5 5.3 0 1.8-.3 3.5-1 5.3s-1.6 3.4-2.8 4.8c-1.2 1.4-2.9 2.7-5.2 4L255 85.6h-7.1l-12-19.3H230zm0-4.6h8.3c1.9-1 3.3-2 4.2-3.1s1.6-2.2 2.1-3.4c.5-1.2.7-2.4.7-3.6 0-2.1-.8-3.8-2.3-5.1-1.6-1.3-4.4-1.9-8.4-1.9H230v17.1zM273.7 87c-5.2 0-9.1-2.2-11.8-6.5-2.7-4.3-4.1-10.2-4.1-17.6 0-7.4 1.4-13.2 4.1-17.6 2.7-4.4 6.7-6.5 11.8-6.5 5.2 0 9.1 2.2 11.8 6.5 2.7 4.4 4.1 10.2 4.1 17.6 0 7.4-1.4 13.3-4.1 17.6-2.7 4.3-6.7 6.5-11.8 6.5zm0-4.6c2.8 0 5.2-1.6 7.1-4.8 1.9-3.2 2.9-8.1 2.9-14.7s-1-11.4-2.9-14.7c-1.9-3.2-4.3-4.9-7.1-4.9-2.9 0-5.2 1.6-7.1 4.9-1.9 3.2-2.9 8.1-2.9 14.7s1 11.5 2.9 14.7c1.8 3.2 4.2 4.8 7.1 4.8zM302 66.3v19.3h-6V40.1h12.1c4 0 6.9.4 8.8 1.2s3.3 2 4.4 3.7c1 1.6 1.5 3.4 1.5 5.3 0 1.8-.3 3.5-1 5.3s-1.6 3.4-2.8 4.8-2.9 2.7-5.2 4L327 85.6h-7.1l-12-19.3H302zm0-4.6h8.3c1.9-1 3.3-2 4.2-3.1.9-1.1 1.6-2.2 2.1-3.4.5-1.2.7-2.4.7-3.6 0-2.1-.8-3.8-2.3-5.1-1.6-1.3-4.4-1.9-8.4-1.9H302v17.1z" class="st1"/>
  </g>
  <g>
    <path d="M289.7 31.7c-3 0-5.3-1.3-6.9-3.8-1.6-2.5-2.4-6-2.4-10.3 0-4.3.8-7.7 2.4-10.2 1.6-2.5 3.9-3.8 6.9-3.8s5.3 1.3 6.9 3.8c1.6 2.5 2.4 6 2.4 10.2 0 4.3-.8 7.7-2.4 10.3s-3.9 3.8-6.9 3.8zm0-2.7c1.7 0 3-.9 4.1-2.8 1.1-1.9 1.7-4.7 1.7-8.6 0-3.8-.6-6.7-1.7-8.6s-2.5-2.8-4.1-2.8c-1.7 0-3.1.9-4.2 2.8s-1.7 4.7-1.7 8.6c0 3.8.6 6.7 1.7 8.6 1.1 1.9 2.5 2.8 4.2 2.8zM304.1 30.9V4.4h14.6V7h-11.1v9h10.1v2.6h-10.1v12.2h-3.5z" class="st2"/>
  </g>
</svg>