<?xml version="1.0" encoding="utf-8"?>
<!-- Generator: Adobe Illustrator 22.1.0, SVG Export Plug-In . SVG Version: 6.00 Build 0)  -->
<svg version="1.1" id="Layer_1" xmlns="http://www.w3.org/2000/svg" xmlns:xlink="http://www.w3.org/1999/xlink" x="0px" y="0px"
	 viewBox="0 0 539.4 87" style="enable-background:new 0 0 539.4 87;" xml:space="preserve">
<style type="text/css">
	.st0{fill:#8C0F0F;}
	.st1{fill:#FFFFFF;}
	.st2{fill:#666565;}
</style>
<g>
	<g>
		<path class="st0" d="M33.7,24.7H16.7c-1.1,0-2,0-2.6,0.1c-0.7,0.1-1.1,0.2-1.4,0.3c-0.7,0.2-1.1,0.9-1.1,2.2c0,0.2,0,0.6,0,1
			c0,0.4,0.1,0.9,0.1,1.4c0.1,0.5,0.1,1,0.1,1.4c0,0.5,0,0.9,0,1.2c0,3.8-1.5,5.8-4.5,5.8c-2.9,0-4.4-1.6-4.4-4.9c0-0.4,0-0.8,0-1.4
			c0-0.6,0-1.2,0.1-1.8c0.1-0.6,0.1-1.2,0.1-1.8c0-0.6,0-1,0-1.3c0-0.8,0-1.6,0-2.2c0-0.6,0-1.1-0.1-1.6c0-0.4,0-0.8,0-1.3
			c0-0.4,0-0.8,0-1.3c0-1.1,0.1-1.9,0.2-2.5c0.1-0.6,0.4-1.1,0.9-1.4c0.5-0.3,1.1-0.5,2-0.6c0.9-0.1,2.1-0.1,3.6-0.1H31
			c0.4,0,0.8,0,1.4,0s1.2,0,2-0.1c0.4,0,0.7,0,1.1,0c0.4,0,0.8,0,1.3,0c0.7-0.1,1.4-0.1,2.3-0.1s1.8,0,2.6,0c4.4,0,6.6,1.4,6.6,4.3
			c0,1.6-0.9,3.2-2.6,4.9L32,37.9c5.1,0.2,9.2,1.9,12.3,5c3.4,3.4,5.1,7.7,5.1,12.9c0,6.4-2.4,11.7-7.3,15.9v-0.1
			c-2.3,2.1-4.9,3.6-8,4.6c-3,1-6.4,1.5-10.1,1.5c-6.8,0-12.5-1.7-17-5C2.4,69.3,0,65.1,0,60c0-1.5,0.2-2.9,0.7-4.3
			c0.5-1.3,1.2-2.5,2-3.5c0.9-1,1.9-1.7,3.1-2.3c1.2-0.6,2.4-0.9,3.8-0.9c1.9,0,3.5,0.6,4.7,1.7c1.2,1.1,1.8,2.6,1.8,4.4
			c0,3.5-2,5.3-6.1,5.5c0.2,2.1,1.6,4,4,5.7c1.4,1,3,1.7,4.8,2.2s3.7,0.8,5.6,0.8c2.1,0,4.1-0.3,5.9-0.9c1.9-0.6,3.5-1.5,4.9-2.7
			c1.3-1.3,2.2-2.7,3-4.4c0.7-1.6,1.1-3.4,1.1-5.4c0-6.7-3.8-10-11.3-10c-1.9,0-4.2,0.2-6.8,0.7c-0.3,0.1-0.6,0.1-0.8,0.1
			c-0.2,0-0.5,0-0.9,0c-2.3,0-3.5-1.1-3.5-3.4c0-1,0.6-2.1,1.8-3.2L33.7,24.7z"/>
		<path class="st0" d="M71.8,29.6c-0.1-2.1-0.3-3.6-0.6-4.6c-0.4-1-1-1.5-1.9-1.5c-0.1,0.1-0.5,0.1-1,0.1c-0.6,0-1.1,0.1-1.5,0.1
			c-0.5,0.1-1,0.1-1.4,0.1c-0.5,0-0.9,0-1.2,0c-3.2,0-4.9-1.4-4.9-4.2c0-2.8,1.6-4.2,4.7-4.2c0.3,0,0.8,0,1.4,0
			c0.6,0,1.3,0.1,1.9,0.2c0.2,0,0.3,0,0.4,0c0.1,0,0.2,0,0.4,0c0.5,0.1,0.9,0.1,1.4,0.1c0.4,0,0.8,0,1.1,0c0.9,0,1.7,0,2.4,0
			c0.7,0,1.4-0.1,2-0.1H75c1.9-0.2,3-0.3,3.5-0.3c1,0,1.7,0.2,2.3,0.5c0.6,0.4,1,0.8,1.4,1.4c0.3,0.9,0.4,1.9,0.4,3.1
			c0,0.1,0,0.4,0,0.8c0,0.4,0,0.9-0.1,1.4c-0.1,2.9-0.2,5.8-0.3,8.7c-0.1,2.9-0.1,5.5-0.1,8v9.7c0,1,0,2,0,3.1c0,1.1,0,2.5,0.1,4.1
			c0,0.7,0,1.4,0,2c0,0.6,0,1.1,0,1.6c0.1,0.7,0.1,1.4,0.1,2.1c0,0.7,0,1.2,0,1.5c0.1,3.2,1,4.8,2.5,4.8c0.3,0,0.7,0,1.2,0
			c0.5,0,1-0.1,1.6-0.1c0.5-0.1,1.1-0.1,1.6-0.2c0.5-0.1,1-0.1,1.3-0.1c3.8,0,5.7,1.4,5.7,4.2s-1.8,4.2-5.3,4.2c-0.5,0-1.1,0-1.5,0
			c-0.5,0-1-0.1-1.4-0.1c-2.4-0.3-4.5-0.5-6.3-0.7c-1.8-0.2-3.3-0.3-4.5-0.3c-2.5,0-5.5,0.3-9.2,0.8c-1,0.1-1.9,0.2-2.7,0.3
			c-0.8,0.1-1.4,0.1-1.9,0.1c-3.5,0-5.2-1.4-5.2-4.3c0-2.8,1.9-4.2,5.8-4.2c0.5,0,1,0,1.5,0c0.5,0,1,0.1,1.4,0.2c0.2,0,0.5,0,0.7,0
			c0.2,0,0.4,0,0.6,0c0.2,0,0.4,0,0.6,0c0.1,0,0.3,0,0.4,0c1.1,0,1.9-0.5,2.3-1.5c0.2-0.8,0.3-2.2,0.4-4.1c0.1-2,0.2-4.6,0.2-7.8
			L71.8,29.6z"/>
	</g>
	<g>
		<g>
			<path class="st0" d="M353.7,56.3c-1,0.5-1.8,1.2-2.7,1.8c-0.8,0.7-1.5,1.5-2.1,2.3c1.9-0.9,4-1.4,6.4-1.4c3.9,0,7.8,1.6,11.7,4.8
				c3.8,3.1,6.7,4.6,8.6,4.6c1.1,0,2.1-0.4,2.7-1.1s1.1-1.8,1.2-3c-0.5,0.2-1.2,0.4-2,0.4c-3.5,0-5.2-1.6-5.2-4.9
				c0-1.7,0.6-3.1,1.9-4.1c1.3-1.1,2.9-1.6,4.9-1.6c2.6,0,4.6,0.9,6.2,2.6c1.6,1.7,2.3,4.1,2.3,7.1c0,3.9-1.2,7.2-3.7,9.9
				c-2.5,2.8-5.6,4.2-9.4,4.2c-3.4,0-7.4-1.7-11.9-5.1c-4-3.1-7.5-4.7-10.4-4.7c-1.6,0-2.8,0.4-3.7,1.2c1.8,0.4,2.7,1.5,2.7,3.5
				c0,3.4-1.9,5.1-5.8,5.1c-2.3,0-4.2-0.9-5.7-2.7c-1.5-1.8-2.2-4.3-2.2-7.5c0-10.7,7.3-18.4,21.9-22.9l6.2-2.1
				c2.9-1,5.2-2.4,6.9-4.1c1.7-1.7,2.5-3.7,2.5-6c0-3.2-1.1-5.8-3.4-7.6c-2.2-1.8-5.3-2.7-9.2-2.7c-3.2,0-5.9,0.6-8.1,1.7
				c-2.2,1.1-3.6,2.7-4.3,4.8c2.9,0.6,4.4,2.3,4.4,5.1c0,1.9-0.7,3.4-2,4.7c-1.4,1.3-3,1.9-5.1,1.9c-2.4,0-4.3-0.8-5.8-2.4
				c-1.5-1.6-2.2-3.7-2.2-6.3c0-5,2.3-9.2,7-12.8c4.4-3.3,10-4.9,16.7-4.9c6.4,0,11.7,1.7,15.9,5c4.3,3.5,6.4,8,6.4,13.3
				c0,3.8-1,7.1-3.1,9.9c-2,2.8-4.9,4.9-8.5,6.4h0.1c-0.5,0.2-1.6,0.6-3.4,1.2c-1.8,0.6-4.2,1.4-7.2,2.4h0.1c-2,0.7-3.8,1.4-5.5,2.1
				C356.3,55,354.9,55.7,353.7,56.3z"/>
			<path class="st0" d="M419.7,77.8c-7.9,0-14.1-2.8-18.5-8.5c-4.3-5.6-6.5-13.3-6.5-23c0-10,2.3-17.8,6.8-23.5
				c4.6-5.9,10.9-8.8,19-8.8c7.7,0,13.8,2.8,18.2,8.5c2.3,2.8,4,6,5,9.7c1.1,3.7,1.6,7.9,1.6,12.6c0,10.2-2.3,18.2-6.8,24.1
				C434,74.8,427.8,77.8,419.7,77.8z M420.3,22.8c-9.6,0-14.6,7.5-15,22.5v1.4c0,7.2,1.3,12.7,3.8,16.6c2.5,3.9,6.1,5.8,10.7,5.8
				c2.3,0,4.4-0.6,6.3-1.7s3.4-2.7,4.8-4.8c1.3-2.1,2.3-4.6,3-7.6c0.7-3,1-6.3,1-10.1c0-7.2-1.3-12.7-3.8-16.5
				C428.6,24.7,425,22.8,420.3,22.8z"/>
			<path class="st0" d="M464.4,29.6c-0.1-2.1-0.3-3.6-0.6-4.6c-0.4-1-1-1.5-1.9-1.5c-0.1,0.1-0.5,0.1-1,0.1c-0.6,0-1.1,0.1-1.5,0.1
				c-0.5,0.1-1,0.1-1.4,0.1c-0.5,0-0.9,0-1.2,0c-3.2,0-4.9-1.4-4.9-4.2c0-2.8,1.6-4.2,4.7-4.2c0.3,0,0.8,0,1.4,0
				c0.6,0,1.3,0.1,1.9,0.2c0.2,0,0.3,0,0.5,0c0.1,0,0.2,0,0.4,0c0.5,0.1,0.9,0.1,1.4,0.1c0.5,0,0.8,0,1.1,0c0.9,0,1.7,0,2.4,0
				c0.7,0,1.4-0.1,2-0.1h-0.1c1.9-0.2,3-0.3,3.5-0.3c1,0,1.7,0.2,2.3,0.5s1,0.8,1.4,1.4c0.3,0.9,0.5,1.9,0.5,3.1c0,0.1,0,0.4,0,0.8
				c0,0.4,0,0.9-0.1,1.4c-0.1,2.9-0.2,5.8-0.3,8.7c-0.1,2.9-0.1,5.5-0.1,8v9.7c0,1,0,2,0,3.1c0,1.1,0,2.5,0.1,4.1c0,0.7,0,1.4,0,2
				c0,0.6,0,1.1,0,1.6c0.1,0.7,0.1,1.4,0.1,2.1c0,0.7,0,1.2,0,1.5c0.1,3.2,1,4.8,2.5,4.8c0.3,0,0.7,0,1.2,0c0.5,0,1-0.1,1.6-0.1
				c0.5-0.1,1.1-0.1,1.6-0.2c0.5-0.1,1-0.1,1.3-0.1c3.8,0,5.7,1.4,5.7,4.2s-1.8,4.2-5.3,4.2c-0.5,0-1,0-1.5,0c-0.5,0-1-0.1-1.4-0.1
				c-2.4-0.3-4.5-0.5-6.3-0.7s-3.3-0.3-4.5-0.3c-2.5,0-5.5,0.3-9.2,0.8c-1,0.1-1.9,0.2-2.7,0.3c-0.8,0.1-1.4,0.1-1.9,0.1
				c-3.5,0-5.2-1.4-5.2-4.3c0-2.8,1.9-4.2,5.8-4.2c0.5,0,1,0,1.5,0c0.5,0,1,0.1,1.4,0.2c0.2,0,0.5,0,0.7,0c0.2,0,0.5,0,0.6,0
				c0.2,0,0.4,0,0.6,0c0.1,0,0.3,0,0.4,0c1.1,0,1.9-0.5,2.3-1.5c0.2-0.8,0.3-2.2,0.5-4.1c0.1-2,0.2-4.6,0.2-7.8L464.4,29.6z"/>
			<g>
				<path class="st0" d="M496.9,44.1c0.5-0.5,1.2-0.9,1.8-1.3c0.7-0.4,1.5-0.7,2.3-1.1c-1.1-0.8-2.1-1.5-3-2.2c-0.8-0.7-1.5-1.4-2-2
					c-1.3-2-2-4.3-2-7.1c0-2.3,0.5-4.5,1.6-6.5c1-2,2.5-3.8,4.5-5.4c4.1-3.2,9-4.8,14.8-4.8c5.7,0,10.6,1.6,14.6,4.8
					c1.9,1.6,3.4,3.4,4.5,5.4c1.1,2,1.6,4.2,1.6,6.5c0,2.5-0.5,4.6-1.5,6.3c-1,1.7-2.8,3.4-5.4,5c1.5,0.7,2.8,1.4,4,2.3
					c4.4,3.2,6.7,7.7,6.7,13.6c0,5.9-2.3,10.7-6.8,14.5c-4.4,3.6-10.3,5.4-17.5,5.4c-7.4,0-13.3-1.8-17.9-5.3
					c-4.6-3.7-6.9-8.6-6.9-14.6C490.3,52,492.5,47.4,496.9,44.1z M515.2,46.4c-4.5,0-8,1-10.5,3c-2.5,2-3.8,4.7-3.8,8.1
					s1.3,6.2,3.8,8.3c2.6,2.1,6,3.1,10.2,3.1c4.2,0,7.6-1,10.1-3.1c2.6-2.1,3.8-4.9,3.8-8.3s-1.2-6.1-3.7-8.1
					C522.6,47.4,519.3,46.4,515.2,46.4z M514.9,22.3c-3.1,0-5.6,0.8-7.5,2.2c-2,1.5-2.9,3.5-2.9,5.9c0,2.1,1,3.8,2.9,5.1
					c1.9,1.3,4.4,1.9,7.6,1.9c3.1,0,5.5-0.7,7.4-2c1.9-1.3,2.8-3,2.8-5.1c0-2.4-1-4.3-2.9-5.8C520.4,23,517.9,22.3,514.9,22.3z"/>
			</g>
		</g>
	</g>
	<g>
		<path class="st1" d="M118.2,33.6h-3.9V1h3.8l11.5,21.7l1.2,3.2h0.1l-0.1-3.2V1h3.9v32.6h-3.9l-11.2-21.3l-1.6-3.4l0.1,3.4V33.6z"
			/>
		<path class="st1" d="M141.1,33.6v-3.3h7.2v-26h-7.2V1h18.6v3.3h-7.2v26h7.2v3.3H141.1z"/>
		<path class="st1" d="M186.1,33.6c-2.3,0.7-4.4,1-6.3,1c-2.7,0-5.1-0.7-7.3-2c-2.1-1.3-3.8-3.4-5-6.1c-1.2-2.7-1.8-5.8-1.8-9.2
			c0-3.4,0.6-6.4,1.8-9.1c1.2-2.7,2.8-4.7,5-6.1c2.1-1.4,4.5-2.1,7.1-2.1c1.9,0,4.1,0.5,6.6,1.4v3.9c-2.3-1.3-4.5-2-6.7-2
			c-1.7,0-3.2,0.6-4.6,1.7c-1.4,1.2-2.5,2.8-3.4,5.1c-0.8,2.2-1.3,4.6-1.3,7.3c0,3.5,0.8,6.8,2.4,9.6c1.6,2.9,4.1,4.3,7.6,4.3
			c0.5,0,1,0,1.7-0.1V20.7h-3.2v-3.3h7.5V33.6z"/>
		<path class="st1" d="M191.7,33.6V1h4.2v14H208V1h4.2v32.6H208V18.3h-12.1v15.3H191.7z"/>
		<path class="st1" d="M225.6,33.6v-29h-9.8V1h23.8v3.6h-9.8v29H225.6z"/>
		<path class="st1" d="M244,32.9v-4c3.4,1.6,6.4,2.4,9.2,2.4c1.1,0,2.2-0.2,3.3-0.7c1.1-0.4,1.8-1.1,2.4-1.9
			c0.5-0.8,0.8-1.7,0.8-2.7c0-1.1-0.4-2.2-1.1-3.2s-2.1-2.1-4.2-3.3l-2.1-1.2l-2.2-1.2c-3.8-2.3-5.7-5.1-5.7-8.4
			c0-2.5,0.9-4.5,2.6-6.2c1.7-1.7,4.4-2.5,8-2.5c2.3,0,4.6,0.3,6.7,1v3.6c-2.4-0.9-4.7-1.4-7-1.4c-1.8,0-3.3,0.5-4.4,1.4
			c-1.1,1-1.7,2.1-1.7,3.4c0,1.3,0.4,2.4,1.3,3.3c0.9,0.9,2,1.7,3.3,2.4l1.6,1l2,1.2l1.7,1c3.6,2.2,5.3,4.9,5.3,8.2
			c0,2.5-0.9,4.7-2.8,6.5c-1.8,1.8-4.8,2.7-8.8,2.7c-1.3,0-2.5-0.1-3.7-0.3C247.4,34,245.9,33.6,244,32.9z"/>
		<path class="st1" d="M115.4,85.6V40.1h5.9v19.6h16.8V40.1h5.9v45.5h-5.9V64.2h-16.8v21.4H115.4z"/>
		<path class="st1" d="M165.7,87c-5.2,0-9.1-2.2-11.8-6.5c-2.7-4.3-4.1-10.2-4.1-17.6c0-7.4,1.4-13.2,4.1-17.6
			c2.7-4.4,6.7-6.5,11.8-6.5c5.2,0,9.1,2.2,11.8,6.5s4.1,10.2,4.1,17.6c0,7.4-1.4,13.3-4.1,17.6C174.8,84.8,170.8,87,165.7,87z
			 M165.7,82.4c2.8,0,5.2-1.6,7.1-4.8c1.9-3.2,2.9-8.1,2.9-14.7c0-6.6-1-11.4-2.9-14.7c-1.9-3.2-4.3-4.9-7.1-4.9
			c-2.9,0-5.2,1.6-7.1,4.9s-2.9,8.1-2.9,14.7c0,6.6,1,11.5,2.9,14.7S162.8,82.4,165.7,82.4z"/>
		<path class="st1" d="M194,66.3v19.3H188V40.1h12.1c4,0,6.9,0.4,8.8,1.2c1.9,0.8,3.3,2,4.4,3.7c1,1.6,1.5,3.4,1.5,5.3
			c0,1.8-0.3,3.5-1,5.3c-0.7,1.8-1.6,3.4-2.8,4.8c-1.2,1.4-2.9,2.7-5.2,4L219,85.6h-7.1l-12-19.3H194z M194,61.7h8.3
			c1.9-1,3.3-2,4.2-3.1c0.9-1.1,1.6-2.2,2.1-3.4s0.7-2.4,0.7-3.6c0-2.1-0.8-3.8-2.3-5.1c-1.6-1.3-4.4-1.9-8.4-1.9H194V61.7z"/>
		<path class="st1" d="M230,66.3v19.3H224V40.1h12.1c4,0,6.9,0.4,8.8,1.2c1.9,0.8,3.3,2,4.4,3.7c1,1.6,1.5,3.4,1.5,5.3
			c0,1.8-0.3,3.5-1,5.3s-1.6,3.4-2.8,4.8c-1.2,1.4-2.9,2.7-5.2,4L255,85.6h-7.1l-12-19.3H230z M230,61.7h8.3c1.9-1,3.3-2,4.2-3.1
			s1.6-2.2,2.1-3.4c0.5-1.2,0.7-2.4,0.7-3.6c0-2.1-0.8-3.8-2.3-5.1c-1.6-1.3-4.4-1.9-8.4-1.9H230V61.7z"/>
		<path class="st1" d="M273.7,87c-5.2,0-9.1-2.2-11.8-6.5c-2.7-4.3-4.1-10.2-4.1-17.6c0-7.4,1.4-13.2,4.1-17.6
			c2.7-4.4,6.7-6.5,11.8-6.5c5.2,0,9.1,2.2,11.8,6.5c2.7,4.4,4.1,10.2,4.1,17.6c0,7.4-1.4,13.3-4.1,17.6
			C282.8,84.8,278.8,87,273.7,87z M273.7,82.4c2.8,0,5.2-1.6,7.1-4.8c1.9-3.2,2.9-8.1,2.9-14.7c0-6.6-1-11.4-2.9-14.7
			c-1.9-3.2-4.3-4.9-7.1-4.9c-2.9,0-5.2,1.6-7.1,4.9c-1.9,3.2-2.9,8.1-2.9,14.7c0,6.6,1,11.5,2.9,14.7
			C268.4,80.8,270.8,82.4,273.7,82.4z"/>
		<path class="st1" d="M302,66.3v19.3H296V40.1h12.1c4,0,6.9,0.4,8.8,1.2s3.3,2,4.4,3.7c1,1.6,1.5,3.4,1.5,5.3c0,1.8-0.3,3.5-1,5.3
			s-1.6,3.4-2.8,4.8s-2.9,2.7-5.2,4L327,85.6h-7.1l-12-19.3H302z M302,61.7h8.3c1.9-1,3.3-2,4.2-3.1c0.9-1.1,1.6-2.2,2.1-3.4
			c0.5-1.2,0.7-2.4,0.7-3.6c0-2.1-0.8-3.8-2.3-5.1c-1.6-1.3-4.4-1.9-8.4-1.9H302V61.7z"/>
	</g>
	<g>
		<path class="st2" d="M289.7,31.7c-3,0-5.3-1.3-6.9-3.8c-1.6-2.5-2.4-6-2.4-10.3c0-4.3,0.8-7.7,2.4-10.2c1.6-2.5,3.9-3.8,6.9-3.8
			s5.3,1.3,6.9,3.8c1.6,2.5,2.4,6,2.4,10.2c0,4.3-0.8,7.7-2.4,10.3S292.7,31.7,289.7,31.7z M289.7,29c1.7,0,3-0.9,4.1-2.8
			c1.1-1.9,1.7-4.7,1.7-8.6c0-3.8-0.6-6.7-1.7-8.6s-2.5-2.8-4.1-2.8c-1.7,0-3.1,0.9-4.2,2.8s-1.7,4.7-1.7,8.6c0,3.8,0.6,6.7,1.7,8.6
			C286.6,28.1,288,29,289.7,29z"/>
		<path class="st2" d="M304.1,30.9V4.4h14.6V7h-11.1v9h10.1v2.6h-10.1v12.2H304.1z"/>
	</g>
</g>
</svg>
